# xmcd
#
# Track frame offsets: 
#        150
#        45150
#        85539
#        119062
#        150428
#        183308
#        201923
#        237794
#        273411
#        303173
#
# Disc length: 4638 seconds
#
# Revision: 5
# Processed by: cddbd v1.5.2PL0 Copyright (c) Steve Scherf et al.
# Submitted via: ExactAudioCopyFreeDBPlugin 1.0
#
DISCID=74121c0a
DTITLE=Andreas Fröhlich - Eragon [CD15)
DYEAR=2005
DGENRE=Hörbuch
TTITLE0=Ajihad (Teil 6)
TTITLE1=Segen und Fluch (Teil 1)
TTITLE2=Segen und Fluch (Teil 2)
TTITLE3=Segen und Fluch (Teil 3)
TTITLE4=Segen und Fluch (Teil 4)
TTITLE5=Segen und Fluch (Teil 5)
TTITLE6=Alraunewurzel und Molchszunge (Teil 1)
TTITLE7=Alraunewurzel und Molchszunge (Teil 2)
TTITLE8=Der Thronsaal des Zwergenkönigs (Teil 1)
TTITLE9=Der Thronsaal des Zwergenkönigs (Teil 2)
EXTD=YEAR: 2005
EXTT0=
EXTT1=
EXTT2=
EXTT3=
EXTT4=
EXTT5=
EXTT6=
EXTT7=
EXTT8=
EXTT9=
PLAYORDER=
